<?xml version="1.0" encoding="utf-8"?>
<!-- Generator: Adobe Illustrator 24.0.2, SVG Export Plug-In . SVG Version: 6.00 Build 0)  -->
<svg version="1.1" id="Layer_1" xmlns="http://www.w3.org/2000/svg" xmlns:xlink="http://www.w3.org/1999/xlink" x="0px" y="0px"
	 viewBox="0 0 256 256" style="enable-background:new 0 0 256 256;" xml:space="preserve">
<style type="text/css">
	.st0{fill:#FFC843;}
	.st1{fill:#D38700;}
</style>
<desc>Created with Fabric.js 1.7.22</desc>
<g>
	<circle class="st0" cx="128" cy="128" r="126"/>
	<circle class="st1" cx="128" cy="128" r="105"/>
	<g>
		<path class="st0" d="M96.5,98.9l-0.6,3.6l-1.3,0.6l-0.9,2.3l-0.7,0.3c-0.2,0.6-0.7,1.3-1.3,1.9c-1.7,0.4-3.5,0.6-5.4,0.6
			s-4.4-0.6-7.4-1.8c-0.3-0.4-0.7-0.9-1.1-1.7l-0.6-0.2l-0.5-0.9l-2.2-0.3l-2.2,1.2v0.4h-0.4l-0.3,1.9l-0.6,0.3v1
			c-0.9,2.3-1.8,4.7-2.8,7.1l-1.1,0.6c-0.3,1-0.4,2.3-0.3,3.9l-0.6,1.6v1.5l-0.7,0.7v1c-0.7,1.1-1.3,1.8-1.7,2.3l-0.3,1.9l0.3,1
			l0.8-0.7c1.4-0.2,2.5-0.8,3.5-1.9l0.9-0.3l1.3-1.6h0.9l1.1-0.7h0.5l1-0.6l2.8-0.2l2.1,1.8v0.4l0.4,0.4l0.7,1.8l0.4,0.4l-0.4,1.8
			c-0.9,0.7-1.5,1.4-1.9,2.3h-0.4c-0.3,0.9-0.4,2.2-0.3,3.9l-0.3,0.4v1.2l-0.5,0.4c-0.6,2.4-1.4,3.9-2.4,4.5l-0.3,1.3l0.3,1l1-0.3
			c0.4-0.4,1.4-1.1,2.9-2h0.4v0.4l-0.4,1.6l-0.7,0.4v0.3c-0.4,0.5-1.1,1.2-2.1,2.1l-2.2,0.9c-0.4-0.1-1.3-0.2-2.7-0.2l-1.9-1.4
			c-0.7-1.4-1.1-2.6-1.1-3.6l0.5-0.4l-0.3-0.9c0.1-0.4,0.1-0.9,0.1-1.6l0.3-0.4v-0.6c0.5-0.6,1.1-1.7,1.8-3.3
			c0.7-1.6,1.1-2.8,1.1-3.5l1.2-2.2V130h0.4v-1l0.5-0.3v-0.4h0.4l0.4-0.6l-0.4-1.3h-1.6c-0.7,0.3-1.3,0.8-1.8,1.5l-2.1,1l-0.1,0.9
			l-1.4,0.4v0.3l-0.3,0.3c-0.3,0.1-0.7,0.2-1.2,0.4s-0.9,0.3-1.2,0.4l-0.4,0.6h-0.3l-0.3,0.7v0.3l-1.1,0.4v0.8
			c-0.7,1.6-1,2.8-0.9,3.7l-0.4,0.4v0.3c-0.3,1.1-0.7,1.7-1.2,2v0.6l-0.7,0.7l-0.6,2.2c-0.7,0.6-1.3,1.5-1.6,2.5
			c-0.5,0.5-1.2,1.1-2.3,1.9v0.4l-1.1,0.6c-1.8-0.3-2.9-0.6-3.2-1v-0.3l-0.6-0.7l0.4-1.2l0.3-0.4h0.3V146l1.1-1.2
			c0.2-2.9,0.5-5.4,0.9-7.4c0.1-0.3,0.5-0.6,1.1-1l0.3-1l0.9-0.6v-0.4l-0.3-0.3v-0.7l1.1-1l0.3-0.6c0.5-0.2,0.9-0.5,1.2-1v-1
			c1.1-1.2,1.5-2.7,1.3-4.5c0.6-1,1.5-2,2.5-3l0.2-0.9h0.4l-0.2-0.9l0.4-0.7v-1l0.5-0.3v-1.3l0.4-0.4v-0.9l1.3-1.9v-0.7l0.9-1.6
			v-0.4h0.4V111l0.6-1.2l-0.3-2.3l0.3-1h0.3v-0.6l1.7-0.6l0.3-0.7l1.3-1h0.6l0.3-0.6l0.8-0.6c1.3-0.6,2.2-0.8,2.7-0.7l1.7-0.7
			c0.4,0,1.4,0,2.8,0.1c1.1,0,2.1,0,2.8,0l0.8-0.4h1.7c0.1,0,1,0.3,2.7,0.9c1.6,0.6,2.6,0.9,2.8,1l1,1l1.1,0.4l1.3-0.2l1.1-0.7
			c0.8-1.1,1.2-2.2,1.4-3.1L94,97.9l0.3-0.7l0.9-0.3l1.1,0.6L96.5,98.9z"/>
		<path class="st0" d="M109.3,130.1l-0.4,0.4l-0.1,1l0.4,0.9l-0.4,1.1l0.2,1.3c-0.7,1.6-1.5,2.6-2.2,3.2c-0.1,0-0.3,0-0.7,0.1
			s-0.6,0.1-0.7,0.1s-0.7-0.1-1.9-0.3l-0.6-0.4c-0.7,0.1-2.3-0.1-4.7-0.5c-2.4-0.5-4.1-0.9-4.9-1.2l-1.1,0.5
			c-0.1,0.1-0.4,0.9-0.9,2.3c-0.5,1.4-0.7,2.2-0.7,2.3c0,0.3,0,0.6,0,1.1s0,0.9,0,1.1l1.3,2.7c0.8,0.3,1.3,0.4,1.4,0.4s0.2,0,0.3,0
			s0.2,0,0.3,0l2.6,0.3c0.7-0.2,1.4-0.5,2.3-1.1c1.1-0.7,1.8-1.1,2.1-1.2l0.6-0.1c0.7-0.5,1.2-1.1,1.6-1.8l1.8-0.5l0.4,1
			c-0.1,0.7-1.7,2.5-4.6,5.4c-1,0.5-2.3,0.8-4.1,0.9c-1.9,0.1-3.3,0.4-4.1,0.7l-2-0.4l-0.3-0.3l-1.6-0.4c-1.5-1-2.9-2.7-4.2-5.1
			c-0.1-0.7-0.2-1.6-0.4-2.5c0.1-0.5,0.4-1.6,0.6-3.3l0.4-0.4l-0.2-0.3l0.6-0.6l0.4-1.3c0.5-0.3,0.9-1,1.2-1.9v-2.9l0.7-0.3l0.6-2.3
			c2.1-2.5,4.4-4.1,6.8-4.8c0.1,0,0.4,0,0.7,0c0.3,0,0.5,0,0.7,0c0.8-0.2,1.3-0.4,1.2-0.4l1.1,0.4c0.4-0.1,0.8-0.2,1.5-0.4
			c0.4,0,1.1,0.2,1.9,0.5s1.5,0.5,1.9,0.5l0.9,1l0.9,0.4l0.4,0.6l1.2,0.5l0.7,0.8c0.1,0.3,0.3,0.8,0.4,1.5
			C108.7,129.1,109.1,129.8,109.3,130.1z M104.3,131.2l-0.4-0.4c0-1.1,0-1.8-0.1-2.4c-0.4-0.7-1.5-1.8-3.3-3.2
			c-1.1,0-2.5,0.4-4.3,1.1l-0.4,0.7l-0.8,0.5l-0.4,0.8l-0.3,0.3v0.7l-0.5,0.4c-0.2,0.4-0.3,0.9-0.4,1.8H93l-0.1,0.8l0.3,1.1
			c1.8,0.9,5.1,1.5,9.7,1.8c0.2-0.9,0.6-1.5,1-1.7L104.3,131.2z"/>
		<path class="st0" d="M144.5,124.9l-0.3,0.6l-0.6,0.4v0.4l-2.5,0.3l-0.4,0.7v0.9l-0.3,0.4v1H140v0.4l-0.5,0.6l-0.2,0.8l-0.7,0.5
			l0.3,0.6c-0.3,0.5-0.6,1.5-1.1,3.2l-1.3,1.6h0.4v0.4c-1,0.6-1.7,1.3-2.3,2l-0.2,0.5l0.2,0.4l-0.4,2.9h-0.3v0.6l-0.6,1l0.3,0.6
			l1,0.3c0.8-0.8,1.9-1.6,3.6-2.2l0.5,1l-0.8,1.7c-1.3,0.8-2.4,1.9-3.2,3.2c-1.8,0.5-2.9,0.7-3.5,0.6V150h-1
			c-0.6-0.7-1.2-1.2-1.9-1.7c0.1-0.7,0-1.6-0.3-2.8l-0.7-0.7H127c-1.3,1.1-2.1,2-2.3,2.5l-1.6,0.4l-0.6,1l-1.8,0.7l-1.1-0.4
			l-1.1,0.2c-1.1-0.7-2-1.1-2.8-1.1l-1.2-1c-0.9-2-1.3-3.4-1.3-4.3c0-0.5,0.1-1.1,0.4-1.8h0.3c0.1-0.4,0.4-1.2,0.6-2.2l-0.3-0.7
			v-0.4c0-0.3,0.2-0.7,0.5-1.3c0.4-0.6,0.6-1,0.6-1.3c1.8-1.2,2.8-3,3.2-5.4c0.6-0.4,1.1-0.8,1.4-1.3c1.1-0.4,1.8-0.6,2.3-0.9h0.4
			c0.6-0.8,1.4-1.4,2.2-1.9l0.4-0.7l2.9-1l2.5,0.4l1,0.6h1.2l1.3-1.2h1.2l1.7,0.6l1.3-0.4l0.7,0.4l0.3,0.6l2.3-0.3l1-0.7l0.6,0.4
			l1-0.4C144.1,123.8,144.3,124.2,144.5,124.9z M134.5,126.2l-1.9-0.7c-1.2,0.3-2.2,0.4-3.2,0.4l-2.3,1l-1.2,1.2
			c-0.1,0.5-0.6,1.9-1.6,4.2s-1.5,3.6-1.7,3.7l-0.2,1l-0.9,0.8l-0.2,0.6l0.2,0.6l-1,1.4v1.1L120,142v0.9l-0.4,0.6v0.4l-0.9,0.4v1.2
			l0.3,0.4l1.4,0.6c0.7-0.2,1.8-0.9,3.2-1.9h0.4l1-0.6c0.3-0.5,0.8-1.1,1.6-1.9v-0.3l0.6-0.4c0.6-1.2,1.6-2.9,2.9-5.1v-0.4l1-1
			c0.1-1,0.5-2,1.1-3.2c-0.1-0.2,0-0.8,0.3-1.7l0.7-0.3v-0.4l-0.2-0.4c0.2-0.4,0.5-1,1-1.8h0.3L134.5,126.2z"/>
		<path class="st0" d="M196.3,103.2l-1,1.9l-1,0.7l-0.6,1l-1.3,0.9l-1.5-1v-1.2c-1.1-0.5-2.9-1.1-5.3-1.8c-1.8,0.2-3.4,0.8-5,2
			c-0.6,1-0.8,1.7-0.8,2.1l-0.5,0.3c-0.3,0.8-0.4,1.2-0.4,1.3h-0.6l-0.4,1.9l-1.2,1.6l0.4,0.3c-0.6,0.8-1.1,2-1.3,3.9l0.4,0.6
			l-0.4,0.7v0.3c-0.2,0.1-0.7,1-1.5,2.7s-1.3,2.7-1.4,3.1l-0.6,0.6l-0.7,1.8l0.1,1.4l-0.7,0.6l-0.3,1h-0.4l-1.6,1.9
			c-0.3,2.7-0.9,4.6-1.7,5.7v0.4l-0.9,0.6v2.3c-0.6,0.8-1.4,2-2.4,3.7l0.4,1.1l1.2,0.9l2.3-0.6v-0.3c0.7-0.3,1.3-0.8,1.9-1.6
			c0.8-0.9,1.3-1.4,1.6-1.7l0.4-1c0.6-0.7,1.7-1.8,3.2-3.2c0.2-0.3,0.4-0.7,0.6-1.3l0.7-0.6h1.6c0.3,0.8,0.4,1.4,0.3,1.9l-1.2,1
			c-0.5,0.8-1.2,2-2,3.7l-1.2,0.4l-0.3,1.3l-1,0.3c-0.5,0.5-0.8,0.9-1,1.3c-0.5,0.4-1.3,0.9-2.3,1.6c-0.6,0.2-1.4,0.6-2.5,1.2
			c-0.9,0.2-1.4,0.3-1.5,0.3c-0.2,0-0.5,0-1-0.1s-0.9-0.1-1.1-0.1l-1.6-0.9l-0.9-1.1l-0.3-1.8c-1.6,1-2.8,2-3.7,2.8h-1.6l-1.6,0.6
			c-1.8-0.9-3.5-1.3-5.2-1l-0.3-0.6l-1.9-1v-1.3l-1-1.2v-0.4c0.1-2,0.3-4.3,0.7-6.8l-0.3-0.9l0.7-0.7v-0.6l0.7-0.4l0.3-1.2l1.3-1
			c0.6-1.3,1.3-2.6,2-3.7c0.6-0.5,1.5-1.1,2.7-1.9l0.6-1.1h1.6l1-0.6c1.1-0.3,2.8-0.5,5.2-0.6l0.2,1.1l1.1,0.2v0.4h0.4l0.3,0.6h0.4
			v0.4c-0.5,0.3-1.2,0.5-2.3,0.4c-1.7-0.1-2.5-0.1-2.5-0.1c-0.8,1.1-1.9,2.3-3.3,3.6v1l-0.4,0.9l-1,0.4l0.3,0.4v0.3
			c-0.2,0.7-0.3,1-0.3,1h-0.4c0,0.1-0.1,0.6-0.4,1.7l-0.6,0.3l0.4,1.5l-0.3,1.3l-0.7,0.8c-0.5,1.3-0.7,2.6-0.7,4l0.6,1.8l0.4,0.4
			l1,0.3l0.6-0.3c0.5,0,0.9,0,1.2-0.1l0.8-0.4c0.4,0,1.2-0.3,2.3-1.1c1.4-1,2.1-1.5,2.2-1.5c0.7-1.3,1.2-2.8,1.5-4.6l0.6-1
			c0.1-0.9,0.3-2.2,0.6-4l1.1-1.1l-0.4-1c0-1.7,0.3-3,1-3.9v-0.6h0.4c0.6-1.3,0.8-2.3,0.6-2.9c0.6-0.6,0.9-1.4,1.1-2.4l1.2-1.1
			l0.4-1.8l1-1.3c-0.1-0.9-0.2-1.6-0.2-2c0-0.6,0.2-1.5,0.5-2.5c0.6-0.7,1.3-1.8,2-3.2c0.8-1.6,1.3-2.7,1.8-3.2
			c0.6-0.4,1.5-1.1,2.6-2.2l1.3-0.3l1.1-1.1l1.1,0.1l1-0.8c0.5,0.1,1.2,0,2.2-0.3c1-0.2,1.7-0.4,2.1-0.4c2.2,0,4.1,0.4,5.7,1.1
			c1.9-0.2,3.3-0.4,4.2-0.6l1,1L196.3,103.2z"/>
		<path class="st0" d="M208.5,128.5l-0.3,0.9l-0.8,1.1l-1.5-0.2l-0.8-0.8l-0.4-1.3l0.3-1.8l-1-1c-0.4-0.3-1.5-0.4-3.2-0.4
			c-0.3,0-0.7,0.1-1.1,0.2c-0.6,0.5-1.1,0.8-1.4,1l-0.6,1.1c0.2,0.8,0.4,1.5,0.4,2.1l0.4,0.8c1.2,0.7,2.3,1.9,3.4,3.4
			c1.2,1.7,1.8,3.2,1.8,4.4l-0.5,1.3l-0.8,0.6l-0.2,1c-0.7,0.5-1.2,1.4-1.3,2.6l-1.1,0.6l-0.4,0.9c-0.3,0.2-0.7,0.6-1.2,1.1
			l-1.2-0.2c-0.9,0.3-1.8,1-2.9,2c-1.1,0.2-2,0.6-2.8,1.3c-1.3,0.1-2.3,0.2-3,0.2c0.3,0-0.3-0.1-2-0.4c-1.1-0.2-1.9-0.4-2.3-0.5
			c-0.6-0.2-1.3-0.6-2.2-1.1c-0.6-0.9-1.3-1.7-2.2-2.5c-0.2-0.6-0.4-1.5-0.4-2.6c0.3-1.2,0.5-2,0.6-2.2l0.7-0.8l0.4-1.4h0.4l0.2-1.3
			l1.3-1h1c0.1,0,0.6,0.1,1.5,0.3c1.4,0.6,2.3,1.8,2.8,3.6l-0.2,1l0.3,1.2l-0.3,1.2l-1.1,1.6h-1L185,143l-0.2-1.3l-0.6-0.8h-0.9
			l-0.9,0.5c-0.3,1.1-0.4,2.1-0.4,3.1l1.5,1.4c1.8,0.5,3.2,0.8,4.2,0.8c0.3,0,0.6,0,1.1,0s0.9,0,1.1,0c0.5-0.2,1.1-0.7,1.9-1.4
			c0.7-0.8,1.3-1.2,1.8-1.4c0.1-0.2,0.3-0.7,0.7-1.5l-0.1-1.1l0.8-0.7l-0.4-1l0.3-0.7l-0.6-0.5L193,138c-0.2-0.3-0.4-0.7-0.8-1.3
			s-0.6-1-0.8-1.3H191l-0.3-0.3c-0.4-1.3-0.8-2.4-1.1-3.2c0-0.6,0.1-1.2,0.3-1.8c0.5-0.6,1-1.3,1.6-2.4l0.1-1.2l0.8-0.6l0.3-1h0.4
			l0.6-0.6c0.7-0.1,1.8-0.5,3.2-1.1c1.8-0.3,2.8-0.4,3.2-0.4c0.8,0,2,0.1,3.5,0.4c0.6,0.3,1.4,0.8,2.5,1.3c0.6,0.6,1.3,1.4,2.1,2.5
			L208.5,128.5z"/>
	</g>
</g>
</svg>
