<?xml version="1.0" encoding="utf-8"?>
<!-- Generator: Adobe Illustrator 24.0.2, SVG Export Plug-In . SVG Version: 6.00 Build 0)  -->
<svg version="1.1" id="Layer_1" xmlns="http://www.w3.org/2000/svg" xmlns:xlink="http://www.w3.org/1999/xlink" x="0px" y="0px"
	 viewBox="0 0 256 256" style="enable-background:new 0 0 256 256;" xml:space="preserve">
<style type="text/css">
	.st0{fill:#FFC843;}
	.st1{fill:#D38700;}
</style>
<desc>Created with Fabric.js 1.7.22</desc>
<g>
	<circle class="st0" cx="128" cy="128" r="126"/>
	<circle class="st1" cx="128" cy="128" r="105"/>
	<g>
		<path class="st0" d="M89.6,122.7l-0.3,1.6l-1,0.3c-0.3-0.1-1-0.2-2.2-0.5c-0.9-0.2-1.6-0.4-2.2-0.4c-0.1,0-0.6,0.1-1.7,0.3
			l-0.3,0.4h-1.8l-1,0.9c-0.1,0.8-0.5,1.6-1.1,2.6c0.1,0.8,0,1.8-0.4,2.9l-0.6,0.6l0.4,1.7l-0.6,0.3l-0.4,0.6l0.4,0.7l-0.7,0.8
			l-0.3,1.3l-0.4,0.1l-0.6,1.3v0.3l-1.3,0.7l0.4,1l-0.7,0.6l-0.3,1l-1,1.3v0.6l0.3,0.3H73v0.7l-0.4,0.3c0.2,0.6,0.4,1.2,0.5,2
			l1.8-0.4l0.7,0.4l0.5-0.4l0.7,0.3c0.6-0.2,1.6-0.6,2.8-1l1-1l0.7-1.8v-1.7c0.5-1.3,1-2.2,1.6-2.8l-0.7-0.4l0.7-0.6v-0.4l1-0.6h1
			c0.7,0.2,1,0.3,1,0.3l0.9,1.9l-0.6,1v1c-0.7,1-1.4,1.6-2.2,1.9v0.4l-1,1.2c-0.1,1-0.5,1.8-1.1,2.5l-1.1,0.7l-0.7,1
			c-1.3,0.7-2.3,1-3.2,1l-0.4,0.7h-0.6l-0.4-0.4c-0.6,0.1-1.1,0.4-1.3,0.6l-1.6,0.4v-0.4c-1.4-0.2-2.4-0.3-3.2-0.3
			c-0.2-0.4-0.7-0.8-1.5-1.3c-0.9-0.5-1.4-1-1.7-1.3v-1.7l-0.3-0.3v-1.3c0.7-1.8,1-3,1-3.5l0.5-0.5c0.4-0.6,0.5-1.4,0.4-2.4l1.1-1.5
			c0-0.3,0.2-1.4,0.6-3.3l0.8-0.9l-0.4-0.7c0.3-1.1,0.8-2.8,1.4-5.1H72c0.3-0.4,0.5-1.1,0.7-2.3l-0.4-0.4l-1.6,0.4
			c-0.6,0.5-1.1,0.8-1.6,1l-1-0.3c-1.2,0.6-2.4,0.8-3.5,0.6L65,124c0.7-0.6,1.6-1.1,2.5-1.6h0.6l0.4-0.6h1l1.2-0.6l0.8,0.2
			c1.1-0.2,2.2-0.5,3-0.8l0.4-1.3h0.6l1.3-1.6l0.3-1c0.6-0.4,1-0.6,1.3-0.7l0.3-1l1,0.4l0.4-0.4v-0.6l1.3-0.6v-0.6l0.6-1h0.6
			l0.4,0.3l0.6-0.3v2.2l-0.6,0.4v0.3l-0.4,0.4v1l-1.3,1.6c-0.1,1.1-0.5,2.1-1.1,3c1.1,0.1,2.3,0.3,3.4,0.5c0.5-0.2,1.3-0.3,2.5-0.3
			s2.2,0.1,3,0.3L89.6,122.7z"/>
		<path class="st0" d="M122.2,124.9l-0.3,0.6l-0.6,0.4v0.4l-2.5,0.3l-0.4,0.7v0.9l-0.3,0.4v1h-0.4v0.4l-0.5,0.6l-0.2,0.8l-0.7,0.5
			l0.3,0.6c-0.3,0.5-0.6,1.5-1.1,3.2l-1.3,1.6h0.4v0.4c-1,0.6-1.7,1.3-2.3,2l-0.2,0.5l0.2,0.4l-0.3,2.9h-0.3v0.6l-0.6,1l0.3,0.6
			l1,0.3c0.8-0.8,1.9-1.6,3.6-2.2l0.5,1l-0.8,1.7c-1.3,0.8-2.4,1.9-3.2,3.2c-1.8,0.5-2.9,0.7-3.5,0.6V150h-1
			c-0.6-0.7-1.2-1.2-1.9-1.7c0.1-0.7,0-1.6-0.3-2.8l-0.7-0.7h-0.3c-1.3,1.1-2.1,2-2.3,2.5l-1.6,0.4l-0.6,1l-1.8,0.7l-1.1-0.4
			l-1.1,0.2c-1.1-0.7-2-1.1-2.8-1.1l-1.2-1c-0.9-2-1.3-3.4-1.3-4.3c0-0.5,0.1-1.1,0.4-1.8h0.3c0.1-0.4,0.4-1.2,0.6-2.2l-0.3-0.7
			v-0.4c0-0.3,0.2-0.7,0.5-1.3c0.4-0.6,0.6-1,0.6-1.3c1.8-1.2,2.8-3,3.2-5.4c0.6-0.4,1.1-0.8,1.4-1.3c1.1-0.4,1.8-0.6,2.3-0.9h0.4
			c0.6-0.8,1.4-1.4,2.2-1.9l0.4-0.7l2.9-1l2.5,0.4l1,0.6h1.2l1.3-1.2h1.2l1.7,0.6l1.3-0.4l0.7,0.4l0.3,0.6l2.3-0.3l1-0.7l0.6,0.4
			l1-0.4C121.9,123.8,122.1,124.2,122.2,124.9z M112.3,126.2l-1.9-0.7c-1.2,0.3-2.2,0.4-3.2,0.4l-2.3,1l-1.2,1.2
			c-0.1,0.5-0.6,1.9-1.6,4.2s-1.5,3.6-1.7,3.7l-0.2,1l-0.9,0.8l-0.2,0.6l0.2,0.6l-1,1.4v1.1l-0.5,0.5v0.9l-0.4,0.6v0.4l-0.9,0.4v1.2
			l0.3,0.4l1.4,0.6c0.7-0.2,1.8-0.9,3.2-1.9h0.4l1-0.6c0.3-0.5,0.8-1.1,1.6-1.9v-0.3l0.6-0.4c0.6-1.2,1.6-2.9,2.9-5.1v-0.4l1-1
			c0.1-1,0.5-2,1.1-3.2c-0.1-0.2,0-0.8,0.3-1.7l0.7-0.3v-0.4l-0.2-0.4c0.2-0.4,0.5-1,1-1.8h0.3L112.3,126.2z"/>
		<path class="st0" d="M139.5,141.7c0.1,0.5-0.1,1.2-0.6,2.2l-0.6,0.4l-0.4,0.6h-0.4l-0.6,0.7l-1.3,0.3c-0.1,0.2-0.3,0.5-0.6,0.9
			s-0.5,0.7-0.6,0.9l-1.1,0.8l-1.3,0.4l-0.3,0.4l-1.3,0.3L130,150l-1.6-0.6c-1.3,0.1-2.6-0.1-3.9-0.7v-0.3c-0.2-0.4-0.4-0.6-0.6-0.7
			l-0.6-0.3c-0.5-0.9-0.8-1.9-0.8-2.8l0.4-1.1c0.5-0.3,1.3-1.5,2.4-3.6c0.7-1.3,1.5-2.7,2.2-4.1c0.1-0.7,0.6-2.3,1.5-4.8v-0.6
			l0.4-0.4v-0.4h0.4l0.7-1.4l-0.1-1.4l-0.4-0.4c-0.8,0.1-1.6,0.4-2.2,1v0.4c-1.2,0.4-2,0.6-2.5,0.9l-0.7,0.7
			c-0.6,0.1-1.2,0.3-1.8,0.6l-0.7-0.1l-0.6-0.5l-0.2-0.7l0.2-0.9c1-0.8,1.9-1.3,2.5-1.4c0.9-0.2,1.9-0.4,2.8-0.5
			c0.4-0.2,0.9-0.4,1.7-0.8c1.7-0.8,3.9-1.1,6.5-1.1c0.1,0,0.3,0,0.7,0.1s0.6,0.1,0.7,0.1c0.5,0.5,0.9,1.2,1.2,1.9h0.4
			c0.2,0.4,0.4,1.2,0.4,2.4c0,0.1-0.1,0.6-0.3,1.5c-0.2,0.1-0.7,0.7-1.4,1.6l-1,0.4l-0.3,1H135l-0.6,0.6c0.1,0.8,0,1.8-0.4,2.9h-0.3
			c-0.1,0.7-0.4,1.4-0.7,1.9l-1,0.9c-0.7,2.3-1,3.5-1,3.6h-0.3c-0.1,0.5-0.2,1.3-0.4,2.3l0.1,1.1c0.9-0.1,2.1-0.5,3.6-1.4
			s2.5-1.7,2.8-2.5l1.1-0.6l0.8-0.1L139.5,141.7z M143.8,108l-0.6,0.5c-0.2,1.3-0.6,2.2-1.3,2.6v0.9l-0.7,0.8l-0.4,1.2l-1.1,0.3
			c-0.1,0.9-0.4,1.6-0.9,2.2c-0.6,0.4-1.2,0.9-1.8,1.5l-1.1,0.4l-0.8-1.8c0.1-0.6,0.1-1.6,0.1-2.9c0.8-1.3,1-2.6,0.6-4
			c0.4-1,0.9-1.9,1.6-2.6l1.6-0.6l0.4-0.4c0.5-0.2,1-0.4,1.5-0.4h1.4c0.6,0.3,1.2,0.7,1.6,1.3v1H143.8z"/>
		<path class="st0" d="M177.2,100.1l-0.6,0.4h-1.9c-0.6-0.2-0.9-0.3-0.9-0.3c-0.6,0-1.5,0.2-2.5,0.7c-1.1,0.5-2,0.8-2.5,0.9
			c-0.4,0.8-1.1,1.7-1.9,2.7c0,0.2,0,0.6,0,1.1s0,0.8,0,1.1c-0.4,1-0.9,1.8-1.7,2.5l-0.3,3.5l-0.8,1v2.3c-0.8,0.7-1.4,1.5-1.7,2.3
			l0.1,1.3c-0.5,1.1-0.7,2-0.5,2.5c-0.6,0.8-1.1,1.6-1.4,2.3c-0.1,0.5-0.3,1.7-0.7,3.4c-0.4,1.6-0.5,2.4-0.5,2.7
			c-0.6,0.5-1.1,0.8-1.4,1l0.4,1l-0.7,0.6c-0.2,0.4-0.4,1.1-0.7,2.1l-0.9,1.1l-0.3,2.6l-0.7,1.3c0,2-0.7,3.5-2.2,4.5l-1.3,0.4
			c-0.7,0.7-1.7,1.5-3,2.5c-1.2,0.5-2.4,0.8-3.5,1c-0.6-0.4-1.6-0.5-2.8-0.4l-0.7-0.3l-1.6-1.7V145l1.3-1h0.6l0.6,0.6l1.6,0.7
			c0.6-0.3,1.2-0.7,1.9-1.4s1.2-1.1,1.7-1.3c0.2-0.5,0.4-1.3,0.7-2.3c0-1.2,0.2-2.8,0.6-5h0.4v-0.7l0.6-1.2v-1.7l1-1.2
			c0.6-2.8,1.4-4.7,2.5-5.8c0.1-0.7,0.7-2.8,1.8-6.5c0.1-0.6,0.2-1.4,0.5-2.5c0.6-0.9,1.4-2.3,2.4-4.2l-0.3-1.2l0.4-1.6l1.2-0.4
			l0.4-0.6v-1.2l0.6-0.4l1-2.3c0.7-0.8,1.8-1.9,3.3-3.3l1.1,0.1l0.8-1h0.6c0.6-0.6,1.6-1.1,3.1-1.5c1.7-0.4,2.8-0.8,3.3-1.1
			c1,0.2,1.7,0.3,2.2,0.3l1,1.3v1.5H177.2z"/>
		<path class="st0" d="M192.9,128.5l-0.3,0.9l-0.8,1.1l-1.5-0.2l-0.8-0.8l-0.4-1.3l0.3-1.8l-1-1c-0.4-0.3-1.5-0.4-3.2-0.4
			c-0.3,0-0.7,0.1-1.1,0.2c-0.6,0.5-1.1,0.8-1.4,1l-0.6,1.1c0.2,0.8,0.4,1.5,0.4,2.1l0.4,0.8c1.2,0.7,2.3,1.9,3.4,3.4
			c1.2,1.7,1.8,3.2,1.8,4.4l-0.5,1.3l-0.8,0.6l-0.2,1c-0.7,0.5-1.2,1.4-1.3,2.6l-1.1,0.6l-0.4,0.9c-0.3,0.2-0.7,0.6-1.2,1.1
			l-1.2-0.2c-0.9,0.3-1.8,1-2.9,2c-1.1,0.2-2,0.6-2.8,1.3c-1.3,0.1-2.3,0.2-3,0.2c0.3,0-0.3-0.1-2-0.4c-1.1-0.2-1.9-0.4-2.3-0.5
			c-0.6-0.2-1.3-0.6-2.2-1.1c-0.6-0.9-1.3-1.7-2.2-2.5c-0.2-0.6-0.4-1.5-0.4-2.6c0.3-1.2,0.5-2,0.6-2.2l0.7-0.8l0.4-1.4h0.4l0.2-1.3
			l1.3-1h1c0.1,0,0.6,0.1,1.5,0.3c1.4,0.6,2.3,1.8,2.8,3.6l-0.2,1l0.3,1.2l-0.3,1.2l-1.1,1.6h-1l-0.7-1.3l-0.2-1.3l-0.6-0.8h-0.9
			l-0.9,0.5c-0.3,1.1-0.4,2.1-0.4,3.1l1.5,1.4c1.8,0.5,3.2,0.8,4.2,0.8c0.3,0,0.6,0,1.1,0s0.9,0,1.1,0c0.5-0.2,1.1-0.7,1.9-1.4
			c0.7-0.8,1.3-1.2,1.8-1.4c0.1-0.2,0.3-0.7,0.7-1.5l-0.1-1.1l0.8-0.7l-0.4-1l0.3-0.7l-0.6-0.5l-1.3-0.4c-0.2-0.3-0.4-0.7-0.8-1.3
			s-0.6-1-0.8-1.3h-0.4l-0.3-0.3c-0.4-1.3-0.8-2.4-1.1-3.2c0-0.6,0.1-1.2,0.3-1.8c0.5-0.6,1-1.3,1.6-2.4l0.1-1.2l0.8-0.6l0.3-1h0.4
			l0.6-0.6c0.7-0.1,1.8-0.5,3.2-1.1c1.8-0.3,2.8-0.4,3.2-0.4c0.8,0,2,0.1,3.5,0.4c0.6,0.3,1.4,0.8,2.5,1.3c0.6,0.6,1.3,1.4,2.1,2.5
			L192.9,128.5z"/>
	</g>
</g>
</svg>
